<svg width="16" height="16" viewBox="0 0 16 16" fill="none" xmlns="http://www.w3.org/2000/svg">
<g clip-path="url(#clip0_407_4)">
<mask id="mask0_407_4" style="mask-type:luminance" maskUnits="userSpaceOnUse" x="1" y="0" width="14" height="17">
<path d="M1.5 0H14.5298V16.0009H1.5V0Z" fill="white"/>
</mask>
<g mask="url(#mask0_407_4)">
<path d="M12.3805 8.50145C12.3621 6.47721 14.0352 5.50462 14.1106 5.45682C13.1693 4.07974 11.7058 3.89221 11.1836 3.87015C9.93894 3.74329 8.75307 4.60373 8.12061 4.60373C7.48815 4.60373 6.51372 3.88853 5.48045 3.90876C4.12176 3.92898 2.86971 4.6975 2.16922 5.91462C0.759057 8.35989 1.80887 11.9873 3.1841 13.9748C3.85701 14.9456 4.65678 16.0395 5.71027 15.9991C6.72515 15.9586 7.10757 15.3427 8.33204 15.3427C9.55652 15.3427 9.90217 15.9991 10.9722 15.9788C12.0625 15.9568 12.7538 14.986 13.4212 14.0116C14.1915 12.8846 14.5096 11.7925 14.528 11.7355C14.5041 11.7263 12.4026 10.921 12.3805 8.50145Z" fill="white"/>
</g>
<path d="M10.3673 2.55558C10.9263 1.879 11.3032 0.93766 11.2002 0C10.3949 0.0330939 9.42048 0.536857 8.84318 1.21344C8.32655 1.81097 7.87242 2.76886 7.99561 3.68813C8.89098 3.758 9.80842 3.23033 10.3673 2.55558Z" fill="white"/>
</g>
<defs>
<clipPath id="clip0_407_4">
<rect width="16" height="16" fill="white"/>
</clipPath>
</defs>
</svg>
