<svg width="16" height="16" viewBox="0 0 16 16" fill="none" xmlns="http://www.w3.org/2000/svg">
<g clip-path="url(#clip0_2_26)">
<mask id="mask0_2_26" style="mask-type:luminance" maskUnits="userSpaceOnUse" x="0" y="0" width="16" height="16">
<path d="M15.7046 6.54545H8.25V9.63636H12.5409C12.1409 11.6 10.4682 12.7273 8.25 12.7273C5.63182 12.7273 3.52273 10.6182 3.52273 8C3.52273 5.38182 5.63182 3.27273 8.25 3.27273C9.37728 3.27273 10.3955 3.67273 11.1955 4.32727L13.5227 2C12.1045 0.763635 10.2864 -1.90735e-06 8.25 -1.90735e-06C3.81364 -1.90735e-06 0.25 3.56364 0.25 8C0.25 12.4364 3.81364 16 8.25 16C12.25 16 15.8864 13.0909 15.8864 8C15.8864 7.52727 15.8136 7.01818 15.7046 6.54545Z" fill="white"/>
</mask>
<g mask="url(#mask0_2_26)">
<path d="M-0.477264 12.7273V3.27273L5.70456 8L-0.477264 12.7273Z" fill="#FBBC05"/>
</g>
<mask id="mask1_2_26" style="mask-type:luminance" maskUnits="userSpaceOnUse" x="0" y="0" width="16" height="16">
<path d="M15.7046 6.54545H8.25V9.63636H12.5409C12.1409 11.6 10.4682 12.7273 8.25 12.7273C5.63182 12.7273 3.52273 10.6182 3.52273 8C3.52273 5.38182 5.63182 3.27273 8.25 3.27273C9.37728 3.27273 10.3955 3.67273 11.1955 4.32727L13.5227 2C12.1045 0.763635 10.2864 -1.90735e-06 8.25 -1.90735e-06C3.81364 -1.90735e-06 0.25 3.56364 0.25 8C0.25 12.4364 3.81364 16 8.25 16C12.25 16 15.8864 13.0909 15.8864 8C15.8864 7.52727 15.8136 7.01818 15.7046 6.54545Z" fill="white"/>
</mask>
<g mask="url(#mask1_2_26)">
<path d="M-0.477264 3.27273L5.70456 8L8.25001 5.78182L16.9773 4.36364V-0.727276H-0.477264V3.27273Z" fill="#EA4335"/>
</g>
<mask id="mask2_2_26" style="mask-type:luminance" maskUnits="userSpaceOnUse" x="0" y="0" width="16" height="16">
<path d="M15.7046 6.54545H8.25V9.63636H12.5409C12.1409 11.6 10.4682 12.7273 8.25 12.7273C5.63182 12.7273 3.52273 10.6182 3.52273 8C3.52273 5.38182 5.63182 3.27273 8.25 3.27273C9.37728 3.27273 10.3955 3.67273 11.1955 4.32727L13.5227 2C12.1045 0.763635 10.2864 -1.90735e-06 8.25 -1.90735e-06C3.81364 -1.90735e-06 0.25 3.56364 0.25 8C0.25 12.4364 3.81364 16 8.25 16C12.25 16 15.8864 13.0909 15.8864 8C15.8864 7.52727 15.8136 7.01818 15.7046 6.54545Z" fill="white"/>
</mask>
<g mask="url(#mask2_2_26)">
<path d="M-0.477264 12.7273L10.4318 4.36364L13.3046 4.72727L16.9773 -0.727276V16.7273H-0.477264V12.7273Z" fill="#34A853"/>
</g>
<mask id="mask3_2_26" style="mask-type:luminance" maskUnits="userSpaceOnUse" x="0" y="0" width="16" height="16">
<path d="M15.7046 6.54545H8.25V9.63636H12.5409C12.1409 11.6 10.4682 12.7273 8.25 12.7273C5.63182 12.7273 3.52273 10.6182 3.52273 8C3.52273 5.38182 5.63182 3.27273 8.25 3.27273C9.37728 3.27273 10.3955 3.67273 11.1955 4.32727L13.5227 2C12.1045 0.763635 10.2864 -1.90735e-06 8.25 -1.90735e-06C3.81364 -1.90735e-06 0.25 3.56364 0.25 8C0.25 12.4364 3.81364 16 8.25 16C12.25 16 15.8864 13.0909 15.8864 8C15.8864 7.52727 15.8136 7.01818 15.7046 6.54545Z" fill="white"/>
</mask>
<g mask="url(#mask3_2_26)">
<path d="M16.9773 16.7273L5.70455 8L4.25 6.90909L16.9773 3.27273V16.7273Z" fill="#4285F4"/>
</g>
</g>
<defs>
<clipPath id="clip0_2_26">
<rect width="16" height="16" fill="white"/>
</clipPath>
</defs>
</svg>
