<svg width="16" height="16" viewBox="0 0 16 16" fill="none" xmlns="http://www.w3.org/2000/svg">
<g clip-path="url(#clip0_2_62)">
<path d="M7.20222 15.9759C5.96976 15.8578 4.72197 15.4152 3.65007 14.7159C2.75184 14.1298 2.54901 13.8889 2.54901 13.4082C2.54901 12.4424 3.61083 10.751 5.42755 8.82276C6.45933 7.72766 7.89652 6.44404 8.05195 6.4788C8.35405 6.54636 10.7697 8.90266 11.674 10.0119C13.104 11.7659 13.7615 13.2021 13.4275 13.8424C13.1736 14.3291 11.5982 15.2804 10.4408 15.6458C9.48695 15.947 8.23419 16.0747 7.20222 15.9759ZM1.33585 12.4041C0.589451 11.259 0.212344 10.1317 0.0302742 8.50119C-0.0298457 7.9628 -0.00830182 7.65485 0.166791 6.54978C0.385019 5.17248 1.16937 3.57912 2.11184 2.59853C2.51324 2.18089 2.54909 2.17071 3.03838 2.33554C3.63256 2.53571 4.2671 2.97394 5.25117 3.86378L5.82534 4.38295L5.5118 4.76814C4.05636 6.55616 2.51994 9.09061 1.94091 10.6586C1.62612 11.511 1.49916 12.3667 1.6346 12.723C1.72605 12.9635 1.64205 12.8738 1.33585 12.4041ZM14.4375 12.5988C14.5113 12.2389 14.418 11.5778 14.1994 10.911C13.7261 9.46705 12.1438 6.78075 10.691 4.95433L10.2336 4.37938L10.7284 3.92503C11.3745 3.33178 11.8231 2.97656 12.3071 2.67489C12.689 2.43684 13.2348 2.22611 13.4694 2.22611C13.614 2.22611 14.1233 2.75456 14.5343 3.33127C15.171 4.22449 15.6394 5.30725 15.8767 6.43443C16.03 7.16273 16.0428 8.72168 15.9014 9.44819C15.7853 10.0444 15.5403 10.8178 15.3013 11.3423C15.1222 11.7353 14.6767 12.4986 14.4815 12.747C14.3812 12.8747 14.3811 12.8744 14.4375 12.5988ZM7.33418 1.95343C6.66381 1.61301 5.62965 1.24759 5.05837 1.14927C4.8581 1.11481 4.51646 1.09559 4.29918 1.10656C3.82783 1.13036 3.84888 1.10571 4.60502 0.748476C5.23365 0.451476 5.75802 0.276827 6.46986 0.127361C7.27062 -0.0407774 8.77577 -0.0427506 9.56379 0.123305C10.4149 0.302659 11.4171 0.675622 11.9819 1.02316L12.1497 1.12645L11.7646 1.10701C10.9994 1.06836 9.88409 1.37753 8.68669 1.96025C8.32553 2.13601 8.01132 2.27639 7.98846 2.2722C7.96559 2.268 7.67117 2.12456 7.33418 1.95343Z" fill="white"/>
</g>
<defs>
<clipPath id="clip0_2_62">
<rect width="16" height="16.0088" fill="white"/>
</clipPath>
</defs>
</svg>
